# xmcd CD database file
#
# Track frame offsets:
#	150
#	17560
#	25192
#	43857
#	57860
#	63100
#	73955
#	84735
#	96312
#	110102
#	123275
#	140035
#	162830
#
# Disc length: 2450 seconds
#
# Revision: 0
# Processed by: cddbd v1.5.1PL2 Copyright (c) Steve Scherf et al.
# Submitted via: CDex 1.50
#
DISCID=b809900d
DTITLE=水木一郎 - ライブ・オブ・アニキング DISC-02
DYEAR=2005
DGENRE=Anime
TTITLE0=FROM RUSSIA WITH LOVE 〜ロシアより愛をこめて〜
TTITLE1=LOVE IS A MENY SPLENDORED THING 〜慕情〜
TTITLE2=UNCHAINED MELODY 〜アンチェインド・メロディ〜
TTITLE3=ルパン三世愛のテーマ(ルパン三世)
TTITLE4=GO！GO！オートバックス(オートバックス30周年記念CMソング)
TTITLE5=ゼブラーマンの歌(ゼブラーマン)
TTITLE6=バビル2世(バビル2世)
TTITLE7=テッカマンの歌(宇宙の騎士テッカマン)
TTITLE8=グランプリの鷹(アローエンブレム グランプリの鷹)
TTITLE9=今日もどこかでデビルマン(デビルマン)
TTITLE10=キャプテンハーロック(宇宙海賊キャプテンハーロック)
TTITLE11=セイリング 未来へ(サブマリン スーパー99)
TTITLE12=花鳥風月(オンラインゲーム「巨商伝」イメージソング)
EXTD=YEAR: 2005/04/06
EXTT0=
EXTT1=
EXTT2=
EXTT3=
EXTT4=
EXTT5=
EXTT6=
EXTT7=
EXTT8=
EXTT9=
EXTT10=
EXTT11=
EXTT12=
PLAYORDER=
